<?xml version="1.0" standalone="no"?><!DOCTYPE svg PUBLIC "-//W3C//DTD SVG 1.1//EN" "http://www.w3.org/Graphics/SVG/1.1/DTD/svg11.dtd"><svg t="1534233472379" class="icon" style="" viewBox="0 0 1028 1024" version="1.1" xmlns="http://www.w3.org/2000/svg" p-id="2096" xmlns:xlink="http://www.w3.org/1999/xlink" width="200.78125" height="200"><defs><style type="text/css"></style></defs><path d="M460.593131 410.944646m53.061818 0l3.206465 0q53.061818 0 53.061818 53.061819l0 210.592323q0 53.061818-53.061818 53.061818l-3.206465 0q-53.061818 0-53.061818-53.061818l0-210.592323q0-53.061818 53.061818-53.061819Z" fill="" p-id="2097"></path><path d="M569.819798 827.474747a57.199192 57.199192 0 1 1-57.199192-56.268282A56.68202 56.68202 0 0 1 569.819798 827.474747z" fill="" p-id="2098"></path><path d="M512.620606 1024c-211.523232 0-383.63798-169.32202-383.63798-377.535354S301.097374 268.929293 512.620606 268.929293s383.63798 169.32202 383.63798 377.535353S724.040404 1024 512.620606 1024z m0-686.700606c-173.769697 0-315.267879 138.705455-315.267879 309.165252s141.498182 308.958384 315.267879 308.958384S827.991919 817.131313 827.991919 646.257778 686.493737 337.092525 512.620606 337.092525z" fill="" p-id="2099"></path><path d="M891.500606 985.832727l-58.750707-49.54505c109.950707-130.430707 143.773737-267.067475 100.331313-406.186667a464.420202 464.420202 0 0 0-98.262626-171.597576L889.535354 304.407273A537.858586 537.858586 0 0 1 1006.416162 506.828283c35.684848 114.398384 44.580202 289.616162-114.915556 479.004444zM136.429899 985.832727C-23.065859 796.444444-14.067071 621.226667 21.514343 506.828283a539.410101 539.410101 0 0 1 116.984243-202.42101l54.716768 54.096161c-10.343434 10.860606-258.585859 268.929293 2.068686 577.784243zM52.234343 7.240404A206.868687 206.868687 0 0 1 84.195556 5.068283a60.509091 60.509091 0 0 1 32.16808 6.102626 23.686465 23.686465 0 0 1 13.136162 21.410909 24.720808 24.720808 0 0 1-17.997576 23.272727 27.306667 27.306667 0 0 1 21.721212 26.89293 29.271919 29.271919 0 0 1-11.377777 23.169293c-7.86101 6.309495-20.686869 10.343434-42.821819 10.343434a188.353939 188.353939 0 0 1-26.789495-1.654949z m24.51394 41.373737h8.067879c12.929293 0 19.962828-5.275152 19.962828-13.446464s-6.412929-12.205253-17.480404-12.205253a69.921616 69.921616 0 0 0-10.343434 0.620606z m0 48.407273a79.851313 79.851313 0 0 0 9.515959 0c11.170909 0 20.686869-4.137374 20.686869-15.72202s-10.343434-15.308283-22.238384-15.308283h-7.964444zM149.255758 62.060606c0-11.688081 0-19.238788-0.620606-26.065454h21.20404l0.72404 14.584242h0.724041a23.272727 23.272727 0 0 1 21.307474-16.342626 26.168889 26.168889 0 0 1 5.171718 0v23.272727a27.927273 27.927273 0 0 0-6.619798-0.72404 15.825455 15.825455 0 0 0-16.859798 12.515555 29.582222 29.582222 0 0 0 0 5.48202v40.132526h-25.031111zM253.931313 114.915556l-1.448081-7.964445h-0.517171a28.444444 28.444444 0 0 1-22.652122 9.722828 24.203636 24.203636 0 0 1-25.548282-24.203636C203.765657 72.40404 222.280404 62.060606 250.207677 62.060606v-1.034343c0-4.240808-2.275556-10.343434-14.377374-10.343435a44.787071 44.787071 0 0 0-21.824646 5.999192L209.454545 41.373737a64.956768 64.956768 0 0 1 31.030303-6.930101c26.375758 0 34.857374 15.515152 34.857374 34.133334v27.099798a120.294141 120.294141 0 0 0 1.137778 19.238788z m-2.896161-37.339798c-12.929293 0-22.962424 2.896162-22.962425 12.412121a8.895354 8.895354 0 0 0 9.722829 9.412525 12.722424 12.722424 0 0 0 13.239596-13.239596zM318.991515 69.094141c1.861818-3.206465 3.723636-6.412929 5.688889-9.515959L341.333333 35.788283h29.685657l-28.651313 32.064646 32.374949 47.062627H344.436364L325.30101 82.747475l-6.309495 7.757576v24.720808h-24.617374V0h24.617374zM398.842828 82.747475c0.827475 10.343434 10.343434 15.101414 22.341818 15.101414a70.749091 70.749091 0 0 0 21.824647-3.206465l3.206465 16.65293a78.403232 78.403232 0 0 1-28.651314 4.861414c-26.789495 0-42.201212-15.618586-42.201212-40.339394a39.615354 39.615354 0 0 1 39.925657-42.201212c25.651717 0 35.374545 19.859394 35.374545 39.408484a59.06101 59.06101 0 0 1-0.827474 9.722829z m28.961616-16.756364A14.273939 14.273939 0 0 0 413.737374 50.372525a16.032323 16.032323 0 0 0-15.204849 16.032323zM499.691313 89.470707a62.060606 62.060606 0 0 0 27.823839 6.826667c11.377778 0 17.37697-4.654545 17.376969-11.791515s-5.275152-10.343434-18.307879-15.411718C507.862626 62.784646 496.484848 52.751515 496.484848 36.926061c0-18.618182 15.515152-32.892121 41.373738-32.892122a66.818586 66.818586 0 0 1 27.823838 5.482021l-5.48202 19.962828a50.579394 50.579394 0 0 0-22.755556-5.171717c-10.343434 0-15.928889 4.861414-15.928888 10.343434s6.206061 10.343434 20.686868 15.411717c19.238788 7.13697 28.34101 17.170101 28.34101 32.581818 0 18.204444-14.067071 33.82303-44.06303 33.823031a73.231515 73.231515 0 0 1-31.030303-6.619798zM601.470707 35.788283l11.791515 38.787879c1.344646 4.75798 2.896162 10.343434 3.930505 14.791111 1.137778-4.240808 2.482424-10.343434 3.620202-14.791111L630.949495 35.788283h26.375758l-18.514748 51.717172c-11.274343 31.030303-18.928485 43.959596-27.823838 51.717171a45.407677 45.407677 0 0 1-23.789899 10.860606l-5.171717-20.686868a31.030303 31.030303 0 0 0 10.343434-4.240808 27.306667 27.306667 0 0 0 10.343434-10.343435 6.516364 6.516364 0 0 0 1.344647-3.620202 10.343434 10.343434 0 0 0-1.137778-4.033939l-29.065051-72.404041zM664.87596 93.090909a47.786667 47.786667 0 0 0 20.686868 5.999192c7.447273 0 10.343434-2.585859 10.343435-6.619798s-2.37899-5.999192-11.688081-9.102222c-15.618586-5.171717-22.238384-14.067071-21.721212-23.479596 0-14.687677 12.61899-25.858586 32.168081-25.858586a54.096162 54.096162 0 0 1 22.341818 4.447677l-4.344243 17.066666a38.270707 38.270707 0 0 0-17.170101-4.551111c-5.999192 0-9.412525 2.37899-9.412525 6.516364s3.10303 5.585455 12.825859 8.998788c14.99798 5.171717 21.410909 12.825859 21.514343 24.410505 0 14.791111-11.688081 25.651717-34.340202 25.651717a56.475152 56.475152 0 0 1-25.548283-5.48202zM762.828283 13.136162v22.652121h17.687273v18.10101h-17.687273V82.747475c0 9.51596 2.275556 13.963636 9.722828 13.963636a31.857778 31.857778 0 0 0 7.240404-0.72404v18.618182a46.752323 46.752323 0 0 1-16.032323 2.172121 25.444848 25.444848 0 0 1-18.411313-6.826667 32.685253 32.685253 0 0 1-6.826667-23.479596V53.889293h-10.343434V35.788283h10.343434V18.618182zM812.890505 82.747475c0.72404 10.343434 10.343434 15.101414 22.341818 15.101414a70.749091 70.749091 0 0 0 21.824647-3.206465l3.206464 16.65293a78.81697 78.81697 0 0 1-28.651313 4.861414c-26.892929 0-42.201212-15.618586-42.201212-40.339394a39.615354 39.615354 0 0 1 39.925657-42.201212c25.548283 0 35.271111 19.859394 35.271111 39.408484a62.060606 62.060606 0 0 1-0.724041 9.722829z m28.961616-16.756364A14.273939 14.273939 0 0 0 827.474747 50.372525a16.032323 16.032323 0 0 0-15.204848 16.032323zM879.191919 61.026263c0-10.343434 0-18.307879-0.72404-25.23798h20.686868l1.137778 10.343434a27.720404 27.720404 0 0 1 23.996768-12.412121 22.445253 22.445253 0 0 1 21.721212 13.446465 34.236768 34.236768 0 0 1 10.343434-9.619394A29.065051 29.065051 0 0 1 972.282828 34.029899c15.204848 0 26.686061 10.343434 26.686061 34.236768v46.648889h-23.893333V72.40404c0-11.481212-3.723636-18.10101-11.688081-18.10101A12.101818 12.101818 0 0 0 951.59596 62.060606a22.341818 22.341818 0 0 0-0.930909 6.412929v46.235152h-23.583031V70.542222c0-10.343434-3.516768-16.756364-11.274343-16.756363a12.412121 12.412121 0 0 0-11.481212 8.895353 15.515152 15.515152 0 0 0-1.034344 6.102626v46.131718H879.191919z" fill="" p-id="2100"></path></svg>