<?xml version="1.0" standalone="no"?><!DOCTYPE svg PUBLIC "-//W3C//DTD SVG 1.1//EN" "http://www.w3.org/Graphics/SVG/1.1/DTD/svg11.dtd"><svg t="1534233507450" class="icon" style="" viewBox="0 0 1072 1024" version="1.1" xmlns="http://www.w3.org/2000/svg" p-id="2232" xmlns:xlink="http://www.w3.org/1999/xlink" width="209.375" height="200"><defs><style type="text/css"></style></defs><path d="M969.785021 669.253287l-379.293261 98.186193-63.624652-67.748473H406.294464V648.04507h42.02369v-65.392004l-147.279288 1.472793 2.356468 63.919211h39.274477v52.038682l-112.42319 1.472793v-66.177494l-188.222931-64.802887L0 725.710348l166.916527 57.24255 6.774847 241.047102h496.723947L881.712007 756.049881l66.373866-24.055617 40.649083 36.132519 35.248843-40.649084zM34.954284 699.789193Q48.503979 657.863689 62.250046 615.054509l126.267443 43.300111-25.430224 86.698408z m607.2816 282.678048l-402.072458-2.552841q-7.854895-119.590782-15.513418-238.985192h273.546732l86.207476 82.77096L826.040436 756.049881zM1072.291406 872.989636c-1.374607 31.321395-21.993707 70.890431-48.405793 70.792245s-46.736628-39.765408-48.307607-70.792245c-0.981862-19.637238 11.193226-39.274477 35.445216-78.548954 1.767351-2.749213 5.302054-8.24764 9.818619-8.542198s9.03313 4.811123 11.193226 7.658523c27.688506 36.721636 41.336387 54.984268 40.256339 79.432629zM309.875623 72.084866h-52.529613v49.093096h58.911715v14.629743h-76.388857V0.016201h73.050527v14.826115h-55.573385v42.80918h52.529613zM337.956874 64.622715c0-9.818619 0-18.262632-0.78549-26.313899h15.709791L353.470292 54.411351a35.739774 35.739774 0 0 1 32.106885-18.262632c13.451508 0 34.266981 8.051268 34.266981 41.336387v57.929854h-16.789839v-55.96613c0-15.611605-5.891172-28.670368-22.484638-28.670368A24.939293 24.939293 0 0 0 356.906809 68.746535a23.073755 23.073755 0 0 0-1.276421 8.24764v58.322599h-17.673514zM533.052838 38.308816c0 7.069406-0.78549 14.924301-0.78549 26.706644v56.358874c0 22.288266-4.418379 35.936146-13.844253 44.380159a51.547751 51.547751 0 0 1-35.347029 11.684157 63.035535 63.035535 0 0 1-32.303257-8.051268l4.418378-13.451508a54.591523 54.591523 0 0 0 28.473996 7.658523c18.066259 0 31.321395-9.818619 31.321396-33.972422v-10.800482a34.659726 34.659726 0 0 1-30.928651 16.200722c-24.055617 0-41.336387-20.422728-41.336387-47.325745 0-32.892374 21.502776-51.547751 43.791042-51.547751a32.303257 32.303257 0 0 1 29.848602 16.888026l0.883676-14.727929z m-18.262632 38.390801a25.724782 25.724782 0 0 0-25.724782-26.706644c-16.789839 0-28.866741 14.236998-28.866741 36.721636 0 19.048121 9.818619 34.856098 28.670368 34.856098a25.822969 25.822969 0 0 0 24.546548-17.968073 31.910512 31.910512 0 0 0 1.374607-9.81862zM579.985838 11.013054a10.407736 10.407736 0 0 1-11.193226 10.898668 10.505923 10.505923 0 0 1-10.702295-10.898668A10.800481 10.800481 0 0 1 569.479915 0.016201a10.505923 10.505923 0 0 1 10.505923 10.996853z m-19.637239 124.401906V38.308816h17.673515v97.106144zM607.281599 64.622715c0-9.818619 0-18.262632-0.785489-26.313899h15.611604l1.080048 16.102535a35.641588 35.641588 0 0 1 32.106885-18.262632c13.451508 0 34.266981 8.051268 34.266981 41.336387v57.929854h-17.673514v-55.96613c0-15.611605-5.792985-28.670368-22.484638-28.670368A25.135665 25.135665 0 0 0 626.133348 68.746535a25.724782 25.724782 0 0 0-1.178234 8.24764v58.322599h-17.673515zM728.443361 90.151125a31.223209 31.223209 0 0 0 33.383305 33.677864 64.999259 64.999259 0 0 0 26.903017-5.007496l2.945585 12.666019a79.43263 79.43263 0 0 1-32.303257 5.989358c-29.455858 0-47.718489-19.637238-47.718489-49.093096s17.28077-52.33324 45.558393-52.333241c31.71414 0 40.059966 27.884879 40.059966 45.754766a68.730335 68.730335 0 0 1-0.589117 8.24764z m51.842309-12.666019C780.482042 66.193694 775.670919 49.109297 756.033681 49.109297c-17.771701 0-25.626596 16.397094-27.001203 28.670368zM137.460669 326.878035c0 35.936146-24.939293 51.547751-48.405793 51.547751-26.215713 0-46.540255-19.637238-46.540255-49.878586 0-32.597816 21.306404-51.645937 48.209421-51.645937S137.460669 297.225805 137.460669 326.878035z m-77.076161 0.981862c0 21.306404 12.273274 37.408939 29.455858 37.408939s29.455858-15.906163 29.455858-37.801684c0-16.397094-8.24764-37.310753-29.455858-37.310753s-29.259485 19.244494-29.259485 37.703498zM179.582546 251.863784a10.996854 10.996854 0 0 1-21.895521 0 10.800481 10.800481 0 0 1 11.09504-11.09504 10.505923 10.505923 0 0 1 10.800481 11.09504z m-19.637239 124.401906v-97.106145h17.673515v97.106145zM206.878307 233.797525h17.673515v142.468165h-17.673515zM296.816859 310.873685c0-12.469646-0.490931-22.484638-0.883675-31.71414h15.906163l0.785489 16.593467a38.390801 38.390801 0 0 1 34.954285-18.851749c23.4665 0 41.041828 19.637238 41.041828 49.093096 0 34.954284-21.208218 52.136868-44.0856 52.136868A34.168795 34.168795 0 0 1 314.195815 363.305112v52.824172h-17.378956zM314.195815 336.696654a41.140015 41.140015 0 0 0 0.78549 7.265778 27.197575 27.197575 0 0 0 26.510272 20.619101c18.655377 0 29.455858-15.21886 29.455857-37.507126 0-19.637238-9.818619-36.132519-28.964926-36.132519a28.081251 28.081251 0 0 0-26.608458 21.895521 25.626596 25.626596 0 0 0-1.276421 7.265779zM410.909215 309.400893c0-11.389598 0-21.208218-0.78549-30.241348h15.513419l0.589117 19.048122h0.785489a29.455858 29.455858 0 0 1 26.903017-21.306404 19.637238 19.637238 0 0 1 5.007496 0.589117V294.574778a27.786692 27.786692 0 0 0-6.087544-0.589118 24.841107 24.841107 0 0 0-23.662873 22.681011 50.074958 50.074958 0 0 0-0.785489 8.24764v51.744123h-17.477142zM484.352487 330.903669a31.125023 31.125023 0 0 0 33.383305 33.677864 62.937349 62.937349 0 0 0 26.80483-5.007496l3.043772 12.666019a78.548954 78.548954 0 0 1-32.303257 5.989357c-29.455858 0-47.718489-19.637238-47.718489-49.093096s17.182584-52.431427 45.558393-52.431426c31.615954 0 40.059966 27.884879 40.059966 45.754765a67.453914 67.453914 0 0 1-0.589117 8.24764z m51.842309-12.666019c0-11.193226-4.614751-28.670368-24.546548-28.670368-17.869887 0-25.626596 16.49528-27.099389 28.670368zM572.72006 358.19943a45.951138 45.951138 0 0 0 23.270127 7.069406c12.764205 0 18.851749-6.480289 18.851749-14.531556s-5.007496-12.960577-18.066259-17.771701c-17.477142-6.283916-25.724782-15.906163-25.724783-27.492134 0-15.709791 12.666019-28.572182 33.579678-28.572182a48.307607 48.307607 0 0 1 23.859245 6.087544l-4.418379 12.764205a38.587174 38.587174 0 0 0-19.637238-5.596613c-10.407736 0-16.200722 6.087544-16.200722 13.255136s5.792985 11.684157 18.459004 16.49528c16.888025 6.382102 25.430224 14.826115 25.430224 29.455858 0 17.084397-13.15695 29.455858-36.230705 29.455858a54.984268 54.984268 0 0 1-27.295762-6.578475zM652.152689 358.19943a45.951138 45.951138 0 0 0 23.270128 7.069406c12.862391 0 18.851749-6.480289 18.851749-14.531556s-5.007496-12.960577-18.06626-17.771701c-17.477142-6.283916-25.724782-15.906163-25.724782-27.492134 0-15.709791 12.666019-28.572182 33.579678-28.572182a48.013048 48.013048 0 0 1 23.859244 6.087544l-4.418378 12.764205a38.194429 38.194429 0 0 0-19.637239-5.596613c-10.505923 0-16.298908 6.087544-16.298908 13.255136s5.792985 11.684157 18.459004 16.49528c16.888025 6.382102 25.52841 14.826115 25.52841 29.455858 0 17.084397-13.255136 29.455858-36.328891 29.455858a55.278826 55.278826 0 0 1-27.197575-7.167593zM814.945396 349.755418c0 9.818619 0 18.851749 0.883676 26.510272h-15.709791l-0.981862-15.906164a36.427077 36.427077 0 0 1-32.106885 18.06626c-15.21886 0-33.481492-8.345826-33.481491-42.514621v-56.75162h17.575328v53.806034c0 18.459004 5.694799 30.830464 21.699148 30.830464a25.52841 25.52841 0 0 0 23.270128-16.004349 26.80483 26.80483 0 0 0 1.669165-9.03313v-59.599019H814.945396zM844.401254 309.400893c0-11.389598 0-21.208218-0.78549-30.241348h15.415232l0.589117 19.048122h0.78549a29.455858 29.455858 0 0 1 26.903017-21.306404 18.949935 18.949935 0 0 1 5.007495 0.589117V294.574778a26.903017 26.903017 0 0 0-5.989357-0.589118 24.644734 24.644734 0 0 0-23.662873 22.681011 50.074958 50.074958 0 0 0-0.785489 8.24764v51.744123H844.401254zM918.040898 330.903669a31.026837 31.026837 0 0 0 33.285119 33.677864 63.42828 63.42828 0 0 0 26.903017-5.007496l3.043772 12.666019a78.548954 78.548954 0 0 1-32.401444 5.989357c-29.455858 0-47.718489-19.637238-47.718489-49.093096s17.28077-52.431427 45.558393-52.431426c31.71414 0 40.158153 27.884879 40.158153 45.754765a67.453914 67.453914 0 0 1-0.589118 8.24764z m51.744123-12.666019c0-11.193226-4.614751-28.670368-24.448362-28.670368-17.869887 0-25.724782 16.49528-27.099389 28.670368z" fill="" p-id="2233"></path></svg>