<?xml version="1.0" standalone="no"?><!DOCTYPE svg PUBLIC "-//W3C//DTD SVG 1.1//EN" "http://www.w3.org/Graphics/SVG/1.1/DTD/svg11.dtd"><svg t="1534233527091" class="icon" style="" viewBox="0 0 1092 1024" version="1.1" xmlns="http://www.w3.org/2000/svg" p-id="2499" xmlns:xlink="http://www.w3.org/1999/xlink" width="213.28125" height="200"><defs><style type="text/css"></style></defs><path d="M23.689758 485.445868h425.541849M23.689758 461.75611h425.541849v47.379517H23.689758zM23.689758 923.706398h425.541849M23.689758 900.01664h425.541849v47.379517H23.689758zM11.844879 817.102485h425.541848M11.844879 793.412727h425.541848v47.379517H11.844879zM0 698.653694h425.541848M0 674.963935h425.541848v47.379517H0zM11.844879 592.049781h425.541848M11.844879 568.360023h425.541848v47.379516H11.844879zM672.536706 1023.999515a580.204902 580.204902 0 0 1-87.380256-6.504975l-12.330325-1.844694-7.08751-10.58272a514.57262 514.57262 0 0 1-82.23453-283.20912A515.931869 515.931869 0 0 1 554.476271 456.319116l6.796242-11.262344 13.009949-2.233051a592.923584 592.923584 0 0 1 98.254244-8.058401c231.266412 0 419.522319 132.235455 419.522319 294.762731s-188.255908 294.471464-419.522319 294.471464z m-66.020638-61.457447a533.310831 533.310831 0 0 0 66.020638 4.077745c199.615341 0 362.045529-106.798091 362.045528-237.38303S872.152047 491.853754 672.536706 491.853754a534.961347 534.961347 0 0 0-75.438288 5.242815 460.59104 460.59104 0 0 0-56.214632 224.761437 459.231791 459.231791 0 0 0 65.632282 240.684062z" fill="" p-id="2500"></path><path d="M672.536706 1023.999515a580.204902 580.204902 0 0 1-87.380256-6.504975l-12.330325-1.844694-7.08751-10.58272a514.57262 514.57262 0 0 1-82.23453-283.20912A515.931869 515.931869 0 0 1 554.476271 456.319116l6.796242-11.262344 13.009949-2.233051a592.923584 592.923584 0 0 1 98.254244-8.058401c231.266412 0 419.522319 132.235455 419.522319 294.762731s-188.255908 294.471464-419.522319 294.471464z m-66.020638-61.457447a533.310831 533.310831 0 0 0 66.020638 4.077745c199.615341 0 362.045529-106.798091 362.045528-237.38303S872.152047 491.853754 672.536706 491.853754a534.961347 534.961347 0 0 0-75.438288 5.242815 460.59104 460.59104 0 0 0-56.214632 224.761437 459.231791 459.231791 0 0 0 65.632282 240.684062zM198.54736 82.331619c-0.485446-14.757554-1.067981-32.621962-1.067981-50.48637h-0.582535c-3.786478 15.631357-8.835115 33.107408-13.592484 47.573695l-14.951733 47.864963h-21.650886l-13.107038-47.573695c-3.980656-14.369198-8.155491-31.845249-11.068166-47.864963-0.776713 16.602249-1.262159 35.534638-2.233051 50.777638l-2.135962 46.602803H92.040537L99.90476 6.602064h36.990975l11.941968 40.874542c3.883567 14.272109 7.670045 29.126752 10.388542 43.884306h0.582535c3.49521-14.175019 7.670045-30.388911 11.650701-43.981395L184.46943 6.602064h36.214262l6.699153 122.623626h-26.990791zM299.034655 129.22569l-1.650516-8.932204h-0.485446A31.942338 31.942338 0 0 1 271.849686 131.264563a27.282058 27.282058 0 0 1-29.126752-27.282058c0-23.107223 20.777083-34.272478 52.233976-34.0783v-1.262159c0-4.75737-2.524319-11.456522-16.213892-11.456523a50.777638 50.777638 0 0 0-24.563561 6.699153l-5.048637-17.864408a73.98195 73.98195 0 0 1 34.563745-7.767134c29.709287 0 38.835669 17.476051 38.83567 38.83567v30.971446a142.13855 142.13855 0 0 0 1.262159 21.650886zM295.830712 87.380256c-14.563376 0-25.922809 3.301032-25.922809 14.07793a9.708917 9.708917 0 0 0 10.971076 10.485631 15.145911 15.145911 0 0 0 14.369198-9.708917 18.544032 18.544032 0 0 0 0.582535-4.66028zM373.113694 15.437179A13.883752 13.883752 0 0 1 358.259051 29.126752a13.495395 13.495395 0 0 1-14.369198-13.883752 13.495395 13.495395 0 0 1 14.563376-13.786662 13.786663 13.786663 0 0 1 14.660465 13.980841z m-28.544217 113.788511V40.194918h27.670415v89.030772zM394.473313 68.642046c0-11.068166 0-20.582905-0.776714-28.447128H417.483447l1.262159 12.233236h0.582535a32.524873 32.524873 0 0 1 27.476236-14.17502c18.155675 0 31.845249 12.039058 31.845249 38.253135v52.719421h-27.379147V79.90439c0-11.456522-3.980656-19.417835-14.07793-19.417835a14.854644 14.854644 0 0 0-13.980841 10.388542 20.388726 20.388726 0 0 0-1.067981 6.99042v51.263084h-27.670414zM537.194398 129.22569c0-5.82535 0.679624-16.50516 0.679624-26.505344V0h27.670415v50.777638a31.262714 31.262714 0 0 1 26.99079-12.524504c21.262529 0 36.893886 17.67023 36.699707 44.952288 0 32.039427-20.388726 48.059141-40.777452 48.059141A29.126752 29.126752 0 0 1 562.146315 116.507008l-1.06798 12.330325z m28.350039-37.864778a19.417835 19.417835 0 0 0 0.582535 4.951548A16.699338 16.699338 0 0 0 582.535042 109.419499c11.844879 0 19.417835-9.126382 19.417835-25.146096 0-13.786663-6.213707-24.757739-19.417835-24.75774a17.184784 17.184784 0 0 0-16.213892 13.689574 21.747975 21.747975 0 0 0-0.582535 5.048637zM668.653139 93.593963c0.873803 11.456522 12.136147 16.893516 25.049007 16.893517A78.836409 78.836409 0 0 0 718.459885 106.798091l3.689389 18.738211a88.933683 88.933683 0 0 1-32.816141 5.534082c-30.194733 0-47.476606-17.476051-47.476606-45.340644 0-22.524688 13.980841-47.476606 44.952287-47.476606 29.126752 0 39.709472 22.33051 39.709472 44.369753a62.525428 62.525428 0 0 1-0.970891 10.971076z m32.524873-18.932388a16.019714 16.019714 0 0 0-15.631357-18.058587 18.155675 18.155675 0 0 0-17.087694 18.058587zM794.092351 129.22569l-1.650516-8.932204h-0.582535a31.942338 31.942338 0 0 1-25.534452 10.971077 27.282058 27.282058 0 0 1-29.126752-27.282058c0-23.107223 20.777083-34.272478 52.233975-34.0783v-1.262159c0-4.75737-2.524319-11.456522-16.213892-11.456523a50.777638 50.777638 0 0 0-24.563561 6.699153l-5.048637-17.864408a74.273218 74.273218 0 0 1 34.563746-7.767134c29.709287 0 38.835669 17.476051 38.835669 38.83567v30.971446a142.13855 142.13855 0 0 0 1.26216 21.650886zM790.791319 87.380256c-14.563376 0-25.922809 3.301032-25.922809 14.07793a9.708917 9.708917 0 0 0 10.971077 10.485631 15.145911 15.145911 0 0 0 14.369197-9.708917 18.544032 18.544032 0 0 0 0.582535-4.66028zM839.530085 68.642046c0-11.068166 0-20.582905-0.679625-28.447128h23.301402l1.262159 12.039057H864.093646a30.777268 30.777268 0 0 1 26.893701-13.980841 25.243185 25.243185 0 0 1 24.369382 15.048822 40.874542 40.874542 0 0 1 11.456523-10.679809 32.330695 32.330695 0 0 1 16.990605-4.369013c17.087695 0 30.000555 12.039058 30.000555 38.83567v52.428154h-26.699523v-48.544587c0-13.009949-4.174834-20.388726-13.107038-20.388727a13.592484 13.592484 0 0 0-12.718682 9.708918 25.049007 25.049007 0 0 0-1.067981 7.087509v52.039797H893.220398V79.418944c0-11.359433-3.980656-18.932389-12.718682-18.932389a14.07793 14.07793 0 0 0-12.91286 9.708918 18.641121 18.641121 0 0 0-1.067981 6.893331v51.845619h-26.99079zM186.119946 202.819284h22.815956v41.942523a26.99079 26.99079 0 0 1 9.029293-7.475867 25.146096 25.146096 0 0 1 11.844879-2.912675c14.660465 0 25.728631 9.708917 25.728631 32.136517v43.010504H233.014017v-40.486186c0-9.708917-3.301032-16.213892-11.844879-16.213892a12.330325 12.330325 0 0 0-11.456523 7.961312 15.437179 15.437179 0 0 0-0.776713 5.145727v43.593039h-22.815956zM291.752967 280.005177c0.679624 9.708917 9.708917 13.980841 20.679994 13.980841a64.66139 64.66139 0 0 0 20.291637-2.718497l3.009765 15.534268a72.428524 72.428524 0 0 1-26.602434 4.466102c-24.951918 0-38.835669-14.369198-38.83567-37.379332a36.893886 36.893886 0 0 1 37.088065-38.83567c23.786848 0 32.816141 18.446943 32.81614 36.699708a53.593224 53.593224 0 0 1-0.776713 8.932204z m26.893701-15.534268a13.301217 13.301217 0 0 0-12.91286-14.951733A15.048822 15.048822 0 0 0 291.267521 264.470909zM395.250026 309.520286l-1.359248-7.378778a26.699523 26.699523 0 0 1-21.068351 9.029294 22.524688 22.524688 0 0 1-23.689759-22.524689c0-19.417835 17.087695-28.25295 43.107594-28.15586v-1.067981c0-3.883567-2.135962-9.708917-13.398306-9.708917a41.554166 41.554166 0 0 0-20.291638 5.534083l-4.174834-14.660466a59.90402 59.90402 0 0 1 28.544217-6.504974c24.466472 0 32.330695 14.466287 32.330695 31.748159V291.267521a126.215926 126.215926 0 0 0 0.970891 17.864408z m-2.718497-34.757925c-12.039058 0-21.359618 2.718497-21.359618 11.553612a8.155491 8.155491 0 0 0 9.029293 8.738026 12.427414 12.427414 0 0 0 11.844879-8.446758 16.310981 16.310981 0 0 0 0-3.883567zM503.9899 202.819284v84.758848c0 8.25258 0 16.990605 0.582535 21.942154h-20.291637l-1.067981-10.873988a25.728631 25.728631 0 0 1-23.010134 12.524504c-17.378962 0-31.359803-14.951733-31.359803-37.767689 0-24.757739 15.340089-38.835669 32.91323-38.835669a22.33051 22.33051 0 0 1 19.417835 8.252579v-39.806561z m-22.913045 64.273033a27.476236 27.476236 0 0 0 0-3.980656 13.689573 13.689573 0 0 0-13.301216-11.262345c-10.388542 0-15.825535 9.708917-15.825536 20.874173s6.213707 20.194548 15.631357 20.194548a13.301217 13.301217 0 0 0 13.204128-10.873988 18.738211 18.738211 0 0 0 0.582535-5.339904zM522.242665 202.819284h22.815956v106.798091h-22.815956zM587.098233 215.635055a11.359433 11.359433 0 0 1-12.233236 11.359433 11.456522 11.456522 0 1 1 0-22.913045 11.359433 11.359433 0 0 1 12.233236 11.553612z m-23.49558 93.885231v-73.496505h22.815956v73.496505zM674.866846 236.023781c0 4.66028-0.582535 10.873987-0.582535 21.747975v41.068721a42.233791 42.233791 0 0 1-11.165255 33.010319 45.243555 45.243555 0 0 1-29.903465 9.029293 56.700077 56.700077 0 0 1-26.408256-5.728262l4.854459-17.281872a45.243555 45.243555 0 0 0 21.359618 5.534082 17.476051 17.476051 0 0 0 19.417835-19.417834v-4.854459a23.49558 23.49558 0 0 1-19.417835 9.708917c-18.155675 0-31.068536-14.660465-31.068535-35.825905 0-23.592669 15.340089-38.835669 33.398675-38.835669a22.233421 22.233421 0 0 1 20.097459 10.388541l0.776714-8.738025z m-23.398491 29.903466a18.252765 18.252765 0 0 0 0-4.174835 12.524503 12.524503 0 0 0-12.330325-9.708917c-8.25258 0-15.048822 7.475866-15.048822 20.874172 0 10.971077 5.436994 19.417835 15.048822 19.417835a12.427414 12.427414 0 0 0 12.039058-9.708917 20.097459 20.097459 0 0 0 0.776713-6.019529zM692.537076 202.819284h22.913045v41.942523a25.728631 25.728631 0 0 1 8.932204-7.475867 25.243185 25.243185 0 0 1 11.941968-2.912675c14.563376 0 25.631542 9.708917 25.631542 32.136517v43.010504h-22.524688v-40.486186c0-9.708917-3.301032-16.213892-11.84488-16.213892a12.330325 12.330325 0 0 0-11.456522 7.961312 15.340089 15.340089 0 0 0-0.679624 5.145727v43.593039h-22.913045zM805.257606 215.05252v20.971261h16.310981V252.431852h-16.310981v26.602433c0 8.932204 2.038873 12.91286 8.932204 12.91286a38.835669 38.835669 0 0 0 6.796242-0.582535v17.281873A46.214447 46.214447 0 0 1 805.840141 310.685356a23.592669 23.592669 0 0 1-17.087694-6.310797 30.486001 30.486001 0 0 1-6.310797-21.747974V252.431852h-9.708917v-16.408071h9.708917v-15.922624zM834.966893 289.519916a44.855198 44.855198 0 0 0 19.417835 5.534083c6.990421 0 9.708917-2.427229 9.708918-6.116618s-2.233051-5.631172-10.776899-8.446758c-15.243-5.145726-21.068351-13.398306-20.874172-22.039243 0-13.689573 11.650701-24.078115 29.806376-24.078115a49.806746 49.806746 0 0 1 20.777083 4.174835l-4.077745 15.825535a35.534638 35.534638 0 0 0-15.922624-4.174834c-5.534083 0-8.738026 2.233051-8.738026 5.922439s2.912675 5.339905 11.941968 8.446758c13.883752 4.854459 19.417835 11.844879 19.417835 22.718867C886.132888 300.976438 875.35599 310.685356 854.384728 310.685356a53.010689 53.010689 0 0 1-23.689758-5.048637z" fill="" p-id="2501"></path></svg>