<?xml version="1.0" standalone="no"?><!DOCTYPE svg PUBLIC "-//W3C//DTD SVG 1.1//EN" "http://www.w3.org/Graphics/SVG/1.1/DTD/svg11.dtd"><svg t="1534233517024" class="icon" style="" viewBox="0 0 1146 1024" version="1.1" xmlns="http://www.w3.org/2000/svg" p-id="2365" xmlns:xlink="http://www.w3.org/1999/xlink" width="223.828125" height="200"><defs><style type="text/css"></style></defs><path d="M564.798394 1024C354.383306 1024 182.969642 855.57163 182.969642 648.623335s171.124765-375.569264 381.539852-375.569264 381.443553 168.33207 381.443553 375.569264-170.835865 375.376665-381.154653 375.376665z m0-700.870027c-182.969642 0-331.75285 146.086814-331.75285 325.493362s148.783209 325.493363 331.75285 325.493363S896.454944 828.511383 896.454944 648.623335s-148.783209-325.493363-331.65655-325.493362z" fill="" p-id="2366"></path><path d="M945.471548 990.198766l-48.149905-40.54222C1011.14802 814.355311 1046.393751 672.505688 1001.518039 527.863372a483.425053 483.425053 0 0 0-102.0778-178.347251l44.297913-44.297913c3.081594 3.274194 309.603894 320.004273 1.733396 684.980558zM186.821634 990.198766c-308.159397-364.976285-1.444497-681.802665 1.637097-684.980558l44.683112 44.297913L210.800287 327.752364l22.437856 22.148956c-11.074478 11.267078-268.580174 279.750952 1.637097 600.140425zM343.308828 661.046011l-24.749052 75.017553h-31.875237l81.084441-238.534633h37.171727L486.314048 736.063564h-32.934536l-25.51945-75.017553z m78.195447-24.074953L398.19972 568.501892c-5.29649-15.50427-8.859583-29.660342-12.422676-43.527515H385.199246c-3.563093 14.156072-7.415085 28.889943-12.037477 43.238616l-23.400854 68.950665zM521.367179 501.092024a301.32211 301.32211 0 0 1 56.431689-5.29649c30.81594 0 50.653701 5.29649 65.483872 17.333966a49.979602 49.979602 0 0 1 19.837761 42.083018 56.624289 56.624289 0 0 1-40.349621 52.387097v0.770399a61.43928 61.43928 0 0 1 49.209204 59.802183 64.231974 64.231974 0 0 1-20.22296 48.149906c-16.563568 15.21537-43.527515 22.341556-82.432639 22.341556a351.398012 351.398012 0 0 1-48.149906-2.888995z m30.81594 97.744309h27.926945c32.549336 0 51.616699-17.045067 51.616699-39.964422 0-28.023245-21.185959-39.001424-52.387098-39.001424a131.641842 131.641842 0 0 0-27.156546 2.118596z m0 114.307876a163.709679 163.709679 0 0 0 25.808349 1.444497c31.875238 0 61.24668-11.748577 61.24668-46.416509 0-32.549336-28.023245-46.03131-61.631879-46.03131h-25.42315zM708.959212 698.602937a109.203986 109.203986 0 0 0 55.179792 15.60057c31.490038 0 49.883302-16.659867 49.883302-40.734821 0-22.341556-12.711575-35.053131-44.972012-47.475807-38.519925-13.770873-62.980077-33.897534-62.980077-67.409868 0-37.171727 30.81594-64.809773 77.039849-64.809773a108.915087 108.915087 0 0 1 52.772297 11.652278l-8.474383 25.13425a95.240513 95.240513 0 0 0-45.357212-11.267078c-32.549336 0-44.875712 19.259962-44.875712 35.72723 0 22.245256 14.444972 33.223435 47.379508 46.03131C825.000484 616.651798 845.512344 635.91176 845.512344 670.964891c0 36.786528-27.252847 68.661766-83.491936 68.661766a123.360058 123.360058 0 0 1-60.861481-15.21537zM36.112429 106.936896L20.31926 154.412703H0L51.616699 2.8368h23.689754L127.212051 154.412703H105.929793l-16.274669-48.149906z m49.787003-15.31167L71.069261 47.905112c-3.466793-9.629981-5.681689-19.259962-7.896585-27.734346C60.379982 29.222948 57.779887 38.852929 54.987192 47.712512L40.157021 91.625226zM149.457307 4.859096a188.362431 188.362431 0 0 1 35.91983-3.177894 62.787477 62.787477 0 0 1 41.697818 11.074478 31.778938 31.778938 0 0 1 12.615276 26.771348 36.112429 36.112429 0 0 1-25.71205 33.416035 39.001424 39.001424 0 0 1 31.297439 38.038425 40.73482 40.73482 0 0 1-12.807875 30.43074c-10.592979 9.629981-27.734346 14.252372-52.579697 14.252373a235.164139 235.164139 0 0 1-30.430741-1.251898z m19.259963 62.209678h17.815465c20.704459 0 32.934536-10.785579 32.934535-25.51945 0-17.719165-13.578273-24.749052-33.416034-24.749052a84.743834 84.743834 0 0 0-17.333966 1.348198z m0 72.802657a103.714897 103.714897 0 0 0 16.467267 0.962999c20.31926 0 39.001424-7.511385 39.001424-29.564043s-17.815465-28.889943-39.194023-28.889943h-15.889469zM268.965373 130.915549a69.913663 69.913663 0 0 0 35.149431 9.629981c20.126661 0 31.875238-10.592979 31.875238-26.000949s-8.185484-22.245256-28.889943-30.141841c-24.749052-8.859583-40.157021-21.667458-40.157022-43.142315 0-23.593454 19.259962-41.216319 49.209204-41.21632a69.046965 69.046965 0 0 1 33.608634 7.415086l-5.392789 16.082068a59.705883 59.705883 0 0 0-28.889944-7.222486c-20.800759 0-28.889943 12.326376-28.889943 22.726756 0 14.252372 9.629981 21.185959 30.141841 28.889943 25.71205 9.629981 38.519925 22.341556 38.519924 44.683113s-17.333966 43.720114-53.253795 43.720114a78.484346 78.484346 0 0 1-38.519925-9.629981zM427.956362 130.915549a69.624764 69.624764 0 0 0 35.149431 9.629981c20.030361 0 31.778938-10.592979 31.778938-26.000949s-8.089184-22.245256-28.889944-30.141841c-24.845351-8.859583-40.157021-21.667458-40.157021-43.142315 0-23.593454 19.259962-41.216319 49.112904-41.21632a68.758065 68.758065 0 0 1 33.608634 7.415086l-5.392789 16.082068a59.416984 59.416984 0 0 0-28.889944-7.222486c-20.704459 0-28.889943 12.326376-28.889943 22.726756 0 14.252372 9.629981 21.185959 30.238141 28.889943 25.71205 9.629981 38.519925 22.341556 38.519924 44.683113s-16.563568 44.394213-51.905598 44.394213a79.158445 79.158445 0 0 1-38.519925-9.629981zM575.583973 154.412703V90.277029l-48.149906-87.440229h22.437856l21.474858 41.890418c5.874288 11.555977 10.40038 20.800759 15.11907 31.393738 4.333492-9.629981 9.629981-19.837761 15.40797-31.393738L624.119078 2.8368h22.341556l-51.0389 87.247629V154.412703zM658.112911 130.915549a70.009963 70.009963 0 0 0 35.245731 9.629981c20.030361 0 31.778938-10.592979 31.778938-26.000949s-8.185484-22.245256-28.889944-30.141841c-24.749052-8.859583-40.060722-21.667458-40.060721-43.142315 0-23.593454 19.259962-41.216319 49.112904-41.21632a68.758065 68.758065 0 0 1 33.608634 7.415086l-5.39279 16.082068a59.705883 59.705883 0 0 0-28.889943-7.222486c-20.704459 0-28.889943 12.326376-28.889943 22.726756 0 14.252372 9.629981 21.185959 30.141841 28.889943 25.71205 9.629981 38.519925 22.341556 38.519924 44.683113s-17.333966 43.720114-53.157496 43.720114a78.580646 78.580646 0 0 1-38.519924-9.629981zM800.829232 19.592967h-46.22391V2.8368h112.57448V19.592967h-46.512809v134.819736h-19.837761zM962.998114 83.536042h-59.320684v54.794592h65.869071V154.412703H884.032269V2.8368h82.143739V19.592967h-62.498578v48.149906H962.998114zM1123.048401 88.062133c-1.155598-21.185959-2.503795-46.705409-2.214896-65.676471h-0.674099c-5.20019 17.815465-11.555977 36.786528-19.259962 57.779886l-26.867647 73.669356H1059.297925l-24.652751-72.321158c-7.222486-21.474858-13.289374-41.02372-17.526566-59.128084h-0.481499c0 19.259962-1.540797 44.490513-2.888994 67.409868l-4.140892 64.617173h-18.682164L1001.518039 2.8368h25.037951l25.904649 73.476756c6.355788 18.682163 11.555977 35.438331 15.40797 51.2315h1.059298c3.755693-15.40797 9.629981-32.067837 15.985768-51.2315l26.675048-73.476756H1136.337775L1145.967756 154.412703h-19.259963z" fill="" p-id="2367"></path></svg>